<svg width="848" height="261" viewBox="0 0 848 261" fill="none" xmlns="http://www.w3.org/2000/svg">
<path d="M204.192 155.28H234.272V167.056H189.6V78.0957H204.192V155.28ZM255.179 87.1837C252.534 87.1837 250.315 86.2877 248.523 84.4957C246.731 82.7037 245.835 80.485 245.835 77.8397C245.835 75.1943 246.731 72.9757 248.523 71.1837C250.315 69.3917 252.534 68.4957 255.179 68.4957C257.739 68.4957 259.915 69.3917 261.707 71.1837C263.499 72.9757 264.395 75.1943 264.395 77.8397C264.395 80.485 263.499 82.7037 261.707 84.4957C259.915 86.2877 257.739 87.1837 255.179 87.1837ZM262.347 96.5277V167.056H247.755V96.5277H262.347ZM311.201 95.3757C316.662 95.3757 321.484 96.485 325.665 98.7037C329.932 100.837 333.26 103.525 335.649 106.768V96.5277H350.369V168.208C350.369 174.693 349.004 180.453 346.273 185.488C343.542 190.608 339.574 194.618 334.369 197.52C329.249 200.421 323.105 201.872 315.937 201.872C306.38 201.872 298.444 199.61 292.129 195.088C285.814 190.65 282.23 184.592 281.377 176.912H295.841C296.95 180.581 299.297 183.525 302.881 185.744C306.55 188.048 310.902 189.2 315.937 189.2C321.825 189.2 326.561 187.408 330.145 183.824C333.814 180.24 335.649 175.034 335.649 168.208V156.432C333.174 159.76 329.804 162.576 325.537 164.88C321.356 167.098 316.577 168.208 311.201 168.208C305.057 168.208 299.425 166.672 294.305 163.6C289.27 160.442 285.26 156.09 282.273 150.544C279.372 144.912 277.921 138.554 277.921 131.472C277.921 124.389 279.372 118.117 282.273 112.656C285.26 107.194 289.27 102.97 294.305 99.9837C299.425 96.9117 305.057 95.3757 311.201 95.3757ZM335.649 131.728C335.649 126.864 334.625 122.64 332.577 119.056C330.614 115.472 328.012 112.741 324.769 110.864C321.526 108.986 318.028 108.048 314.273 108.048C310.518 108.048 307.02 108.986 303.777 110.864C300.534 112.656 297.889 115.344 295.841 118.928C293.878 122.426 292.897 126.608 292.897 131.472C292.897 136.336 293.878 140.602 295.841 144.272C297.889 147.941 300.534 150.757 303.777 152.72C307.105 154.597 310.604 155.536 314.273 155.536C318.028 155.536 321.526 154.597 324.769 152.72C328.012 150.842 330.614 148.112 332.577 144.528C334.625 140.858 335.649 136.592 335.649 131.728ZM407.295 95.3757C412.671 95.3757 417.45 96.5277 421.631 98.8317C425.898 101.136 429.226 104.549 431.615 109.072C434.09 113.594 435.327 119.056 435.327 125.456V167.056H420.863V127.632C420.863 121.317 419.284 116.496 416.127 113.168C412.97 109.754 408.66 108.048 403.199 108.048C397.738 108.048 393.386 109.754 390.143 113.168C386.986 116.496 385.407 121.317 385.407 127.632V167.056H370.815V72.3357H385.407V104.72C387.882 101.733 390.996 99.429 394.751 97.8077C398.591 96.1863 402.772 95.3757 407.295 95.3757ZM472.244 108.432V147.472C472.244 150.117 472.841 152.037 474.036 153.232C475.316 154.341 477.449 154.896 480.436 154.896H489.396V167.056H477.876C471.305 167.056 466.271 165.52 462.772 162.448C459.273 159.376 457.524 154.384 457.524 147.472V108.432H449.204V96.5277H457.524V78.9917H472.244V96.5277H489.396V108.432H472.244Z" fill="#53389E"/>
<path d="M598.845 96.5277L576.957 167.056H561.597L547.389 114.96L533.181 167.056H517.821L495.805 96.5277H510.653L525.373 153.232L540.349 96.5277H555.581L569.917 152.976L584.509 96.5277H598.845ZM606.166 131.472C606.166 124.389 607.617 118.117 610.518 112.656C613.505 107.194 617.515 102.97 622.55 99.9837C627.67 96.9117 633.302 95.3757 639.446 95.3757C644.993 95.3757 649.814 96.485 653.91 98.7037C658.091 100.837 661.419 103.525 663.894 106.768V96.5277H678.614V167.056H663.894V156.56C661.419 159.888 658.049 162.661 653.782 164.88C649.515 167.098 644.651 168.208 639.19 168.208C633.131 168.208 627.585 166.672 622.55 163.6C617.515 160.442 613.505 156.09 610.518 150.544C607.617 144.912 606.166 138.554 606.166 131.472ZM663.894 131.728C663.894 126.864 662.87 122.64 660.822 119.056C658.859 115.472 656.257 112.741 653.014 110.864C649.771 108.986 646.273 108.048 642.518 108.048C638.763 108.048 635.265 108.986 632.022 110.864C628.779 112.656 626.134 115.344 624.086 118.928C622.123 122.426 621.142 126.608 621.142 131.472C621.142 136.336 622.123 140.602 624.086 144.272C626.134 147.941 628.779 150.757 632.022 152.72C635.35 154.597 638.849 155.536 642.518 155.536C646.273 155.536 649.771 154.597 653.014 152.72C656.257 150.842 658.859 148.112 660.822 144.528C662.87 140.858 663.894 136.592 663.894 131.728ZM762.548 96.5277L719.284 200.208H704.18L718.516 165.904L690.74 96.5277H706.996L726.836 150.288L747.444 96.5277H762.548ZM782.264 87.1837C779.619 87.1837 777.4 86.2877 775.608 84.4957C773.816 82.7037 772.92 80.485 772.92 77.8397C772.92 75.1943 773.816 72.9757 775.608 71.1837C777.4 69.3917 779.619 68.4957 782.264 68.4957C784.824 68.4957 787 69.3917 788.792 71.1837C790.584 72.9757 791.48 75.1943 791.48 77.8397C791.48 80.485 790.584 82.7037 788.792 84.4957C787 86.2877 784.824 87.1837 782.264 87.1837ZM789.432 96.5277V167.056H774.84V96.5277H789.432ZM826.894 108.432V147.472C826.894 150.117 827.491 152.037 828.686 153.232C829.966 154.341 832.099 154.896 835.086 154.896H844.046V167.056H832.526C825.955 167.056 820.921 165.52 817.422 162.448C813.923 159.376 812.174 154.384 812.174 147.472V108.432H803.854V96.5277H812.174V78.9917H826.894V96.5277H844.046V108.432H826.894Z" fill="#FF8908"/>
<path d="M0.0100098 130.745L0.0700073 130.635C0.0300073 131.035 0.0100098 131.445 0.0100098 131.855V130.745Z" fill="#53389E"/>
<path d="M8.3501 119.265C7.0601 119.815 5.87007 120.555 4.82007 121.455L5.28009 120.565L8.3501 119.265Z" fill="#53389E"/>
<path d="M4.82007 121.455L0.0700073 130.635C0.390007 126.965 2.17007 123.705 4.82007 121.455Z" fill="#53389E"/>
<path d="M16.33 259.965C15.47 260.135 14.58 260.225 13.67 260.225C6.11998 260.225 0.0100098 254.115 0.0100098 246.565C0.0100098 246.405 0.0100195 246.245 0.0200195 246.085L16.33 259.965Z" fill="#53389E"/>
<path d="M126.62 204.605C126.62 210.485 122.9 215.505 117.69 217.425L126.62 204.605Z" fill="#53389E"/>
<path d="M126.57 160.825L110.54 148.505C111.32 148.355 112.13 148.285 112.96 148.285C120.12 148.285 126 153.805 126.57 160.825Z" fill="#53389E"/>
<path d="M126.62 161.955C126.62 162.315 126.61 162.675 126.57 163.035V160.835C126.6 161.205 126.62 161.575 126.62 161.955Z" fill="#53389E"/>
<path d="M122.61 70.7952L63.3201 95.9452V27.9152C63.3201 25.2752 64.9001 22.8853 67.3301 21.8552L117.47 0.585248C121.81 -1.25475 126.62 1.92525 126.62 6.64525V64.7253C126.62 67.3652 125.04 69.7552 122.61 70.7852V70.7952Z" fill="#FF8908"/>
<path d="M126.57 163.035V160.835L110.54 148.505L110.25 148.285L85.15 158.095C82.87 159.805 80.04 160.835 76.97 160.835C69.42 160.835 63.31 154.715 63.31 147.175C63.31 147.025 63.33 146.875 63.33 146.715H63.31V95.9551L8.34003 119.275C7.05003 119.825 5.86 120.565 4.81 121.465L0.0599976 130.645C0.0199976 131.045 0 131.455 0 131.865V246.095L16.32 259.975L16.63 260.235L117.6 217.465C117.6 217.465 117.66 217.455 117.68 217.435L126.61 204.615L126.56 163.045L126.57 163.035Z" fill="#53389E"/>
</svg>
